# xmcd
#
# Track frame offsets: 
#        150
#        21024
#        42710
#        57005
#        61448
#        79853
#        97932
#        115281
#        121371
#        141413
#        160617
#        181333
#
# Disc length: 2797 seconds
#
# Revision: 0
# Processed by: cddbd v1.5.2PL0 Copyright (c) Steve Scherf et al.
# Submitted via: ExactAudioCopy v0.95b4
#
DISCID=9f0aeb0c
DTITLE=Jørun Bøgeberg - Basstard
DYEAR=2006
DGENRE=Blues
TTITLE0=Nice Talkin' To You
TTITLE1=Daddy'S Eyes
TTITLE2=Ziggy'S Blues
TTITLE3=Vi
TTITLE4=Life Is An Endless Dream
TTITLE5=On Top Of The Lover'S Throne
TTITLE6=Home To You
TTITLE7=Hellhounds On My Trail
TTITLE8=Big Butt Mama
TTITLE9=Where The River Meets The Sea
TTITLE10=Life Is Okey
TTITLE11=Queen Of My Dreams
EXTD=
EXTT0=
EXTT1=
EXTT2=
EXTT3=
EXTT4=
EXTT5=
EXTT6=
EXTT7=
EXTT8=
EXTT9=
EXTT10=
EXTT11=
PLAYORDER=
